<svg xmlns="http://www.w3.org/2000/svg" width="16" height="16" fill="none"><path fill="#B1B1B1" d="M9.396 12.99c.291-.29.502-.646.633-1.065.13-.424.174-.884.13-1.379a4.727 4.727 0 0 0-.413-1.52l1.736-1.988c.317.087.617.156.9.209.28.05.533.082.758.098.223.013.411.01.566-.008.262-.031.467-.122.617-.271.149-.15.22-.322.212-.519a.79.79 0 0 0-.256-.546L9.993 1.716a.782.782 0 0 0-.542-.252.663.663 0 0 0-.522.208c-.15.15-.238.357-.267.621-.021.152-.024.34-.008.566.016.225.048.478.098.758s.12.58.208.9L6.97 6.248a4.648 4.648 0 0 0-1.517-.409c-.495-.044-.953 0-1.375.134a2.52 2.52 0 0 0-1.068.628c-.196.197-.293.417-.29.66.002.244.105.468.31.672l2.058 2.059-1.893 1.893c-.118.118-.226.26-.323.424-.096.165-.175.33-.235.495a2.198 2.198 0 0 0-.122.436c-.024.123-.02.2.012.232.031.032.11.037.235.016.12-.021.265-.063.433-.126.162-.063.327-.141.495-.236.165-.096.306-.204.424-.322l1.893-1.893 2.059 2.058c.201.202.425.305.671.31.244.003.464-.094.66-.29Z"/></svg>