<?xml version="1.0" standalone="no"?>
<!DOCTYPE svg PUBLIC "-//W3C//DTD SVG 20010904//EN"
 "http://www.w3.org/TR/2001/REC-SVG-20010904/DTD/svg10.dtd">
<svg version="1.0" xmlns="http://www.w3.org/2000/svg"
 width="700.000000pt" height="700.000000pt" viewBox="0 0 700.000000 700.000000"
 preserveAspectRatio="xMidYMid meet">
<metadata>
Created by potrace 1.11, written by Peter Selinger 2001-2013
</metadata>
<g transform="translate(0.000000,700.000000) scale(0.100000,-0.100000)"
fill="#000000" stroke="none">
<path d="M3228 5245 c-2 -2 -48 -6 -103 -9 -99 -6 -177 -14 -225 -21 -14 -2
-50 -7 -80 -10 -30 -3 -68 -8 -85 -11 -339 -56 -606 -126 -870 -229 -133 -52
-507 -236 -655 -323 -365 -213 -696 -496 -956 -817 -101 -124 -203 -266 -232
-323 l-22 -42 24 -49 c88 -184 469 -615 726 -822 443 -358 956 -607 1590 -773
119 -31 171 -43 270 -62 14 -3 32 -7 40 -9 8 -3 33 -7 55 -10 22 -4 51 -8 64
-10 246 -41 476 -59 746 -59 149 0 377 9 470 19 81 8 141 16 165 20 14 2 49 6
78 9 29 3 63 8 75 11 12 2 38 7 57 9 125 19 372 78 525 126 55 18 111 35 125
40 150 47 619 272 815 391 110 66 333 220 366 251 8 7 48 40 89 73 72 58 319
298 390 380 121 139 262 330 304 412 l27 52 -26 48 c-25 44 -161 241 -175 253
-3 3 -35 41 -70 85 -131 161 -370 398 -505 498 -5 4 -23 19 -40 33 -16 14 -84
63 -150 108 -252 175 -527 321 -800 426 -60 23 -119 46 -130 51 -49 21 -283
93 -422 130 -177 46 -345 81 -498 104 -22 3 -67 10 -100 15 -33 5 -94 12 -135
16 -41 3 -91 8 -110 11 -39 5 -607 12 -612 8z m-851 -502 c-91 -94 -130 -143
-204 -255 -105 -160 -206 -401 -242 -578 -6 -30 -14 -66 -17 -80 -27 -133 -38
-453 -19 -615 21 -185 80 -392 160 -562 58 -123 101 -193 183 -298 54 -69 219
-235 234 -235 5 0 8 -4 8 -9 0 -12 -100 11 -220 50 -182 60 -569 208 -676 259
-457 216 -863 544 -1153 930 -36 47 -68 90 -73 96 -9 12 85 141 195 269 97
112 293 303 403 392 93 75 326 243 337 243 3 0 41 22 84 49 184 114 569 285
768 342 86 24 261 66 284 68 8 0 -15 -29 -52 -66z m1378 54 c62 -12 105 -19
107 -17 8 4 220 -76 272 -102 129 -65 183 -104 297 -219 177 -176 277 -383
324 -669 11 -66 13 -285 4 -345 -5 -33 -12 -75 -14 -94 -15 -102 -112 -335
-182 -437 -106 -155 -238 -231 -328 -188 -58 27 -63 102 -20 269 14 55 28 111
31 125 2 14 11 59 19 100 8 41 17 88 19 104 3 16 10 52 15 80 6 28 12 62 15
76 3 22 24 137 41 225 3 17 14 77 25 135 10 58 22 119 25 135 3 17 12 68 21
115 8 47 19 107 25 133 5 26 9 52 9 58 0 10 -281 11 -297 0 -9 -5 -28 -99 -40
-196 -2 -21 -6 -42 -9 -46 -2 -4 -32 22 -67 58 -164 172 -346 243 -584 230
-113 -7 -144 -12 -223 -37 -273 -87 -490 -323 -596 -649 -14 -42 -27 -92 -30
-111 -3 -19 -8 -38 -10 -41 -16 -27 -24 -301 -12 -389 40 -280 214 -522 454
-631 158 -72 352 -80 529 -22 109 35 265 127 342 202 l23 21 6 -27 c29 -114
106 -207 189 -227 141 -35 396 38 545 155 159 126 292 305 368 499 104 264
143 684 87 948 -45 214 -150 429 -307 630 -27 35 -48 66 -45 68 22 22 528
-168 698 -262 44 -24 82 -44 84 -44 3 0 41 -22 85 -50 44 -27 82 -50 85 -50
10 0 222 -145 307 -210 177 -136 332 -279 436 -405 37 -44 74 -88 84 -98 9
-11 42 -57 74 -103 l58 -84 -54 -58 c-501 -531 -963 -863 -1462 -1051 -125
-47 -394 -135 -443 -146 -11 -2 -74 -17 -140 -34 -105 -26 -239 -56 -300 -67
-41 -7 -211 -35 -235 -39 -14 -2 -52 -7 -85 -11 -33 -3 -68 -8 -78 -10 -100
-18 -365 -24 -472 -10 -407 54 -792 300 -1017 652 -85 132 -164 339 -196 512
-21 111 -27 368 -12 452 4 25 10 61 13 80 3 19 13 62 21 95 82 306 248 561
485 749 174 137 388 232 611 271 68 11 366 13 425 2z m-133 -781 c170 -27 313
-173 349 -356 14 -72 18 -202 7 -259 -5 -25 -10 -55 -12 -66 -10 -55 -49 -162
-82 -226 -70 -134 -201 -245 -336 -284 -122 -35 -262 -28 -352 17 -83 42 -179
154 -219 256 -93 234 -30 559 145 744 132 139 318 204 500 174z"/>
</g>
</svg>
