<svg xmlns="http://www.w3.org/2000/svg" viewBox="0 0 742 742">
  <g>
    <path d="M371.42,320.91c-15.3,0-29.37,7.19-39.63,20.26a71.5,71.5,0,0,0-14.88,43.4c0,22.62,14.22,46.67,40.57,46.67,41.86,0,52.68-36.57,55.41-58.37,2-16.56-1.14-30.14-9.22-39.28C396.33,325.3,385.18,320.91,371.42,320.91Z"/>
    <path d="M547.42,270.33a380.83,380.83,0,0,0-47.56-18.25C521.62,277.12,533,306.44,533,338c0,37-10.07,71.36-27.63,94.2-19,25-43.37,39.12-67.12,39.12-.83,0-1.65,0-2.48-.05-12.22-.43-21.4-9.32-25.24-24.09-23.36,21.5-43.81,24.09-57.42,24.09-41.3,0-76.2-38.29-76.2-83.6,0-27,9.05-53.76,24.84-73.49,17.13-21.41,40.94-33.2,67-33.2,22.76,0,40.37,8.45,56.38,27.23l5.26-23.31h37l-23,118.25c-2,9.68-5.09,24.3-1,29.33.65.8,1.85,1.87,4.73,1.87,17,0,44.05-36.91,44.05-80.65,0-34.43-11.38-63.74-32.92-84.77-20.58-20.1-49.6-31.17-81.72-31.17a123.59,123.59,0,0,0-90.41,39c-23.77,25-36.86,58.56-36.86,94.39,0,37.39,14.16,72.24,39.88,98.15a132.37,132.37,0,0,0,94.4,39.58c58-1.72,114.07-14.46,162.88-37.12C598.85,447.79,641,413,669.57,371,641,329,598.85,294.21,547.42,270.33Z"/>
    <path d="M258.57,247.36a387.11,387.11,0,0,0-64,23C143.15,294.21,101,329,72.43,371c28.52,42,70.72,76.79,122.15,100.67a387.41,387.41,0,0,0,64.77,23.17c-32.22-31.92-50-75.85-50-123.78C209.4,323.43,226.86,279.5,258.57,247.36Z"/>
    <path d="M371,0C166.1,0,0,166.1,0,371S166.1,742,371,742,742,575.9,742,371,575.9,0,371,0ZM562.58,504.33C505.27,530.94,439,545,371,545s-134.27-14.06-191.58-40.67C117.59,475.62,67.88,432.78,35.67,380.43L29.86,371l5.81-9.43c32.21-52.34,81.92-95.19,143.75-123.89C236.73,211.06,303,197,371,197s134.27,14.06,191.58,40.67c61.83,28.71,111.54,71.55,143.75,123.89l5.81,9.43-5.81,9.43C674.12,432.78,624.41,475.62,562.58,504.33Z"/>
  </g>
</svg>
