<svg aria-hidden="true" focusable="false" width="12" height="12" xmlns="http://www.w3.org/2000/svg"><path d="M9.317 8.319c-1.096 0-2.064-.237-2.904-.712-.84-.48-1.5-1.14-1.98-1.98-.474-.839-.711-1.81-.711-2.911 0-.317.01-.606.033-.867a5.73 5.73 0 0 1 .122-.745c.055-.229.126-.447.213-.654a.364.364 0 0 0 .04-.172.259.259 0 0 0-.08-.188.24.24 0 0 0-.197-.09.514.514 0 0 0-.082.008.292.292 0 0 0-.074.025A5.58 5.58 0 0 0 1.76 1.399c-.551.6-.982 1.29-1.293 2.07A6.462 6.462 0 0 0 0 5.897c0 .856.155 1.655.466 2.396a6.144 6.144 0 0 0 1.309 1.94c.562.555 1.213.989 1.955 1.3.747.31 1.552.466 2.413.466.845 0 1.66-.158 2.446-.474a6.646 6.646 0 0 0 2.053-1.285c.59-.54 1.012-1.15 1.268-1.832a.158.158 0 0 0 .025-.082.52.52 0 0 0 .008-.082.287.287 0 0 0-.082-.212.256.256 0 0 0-.196-.09.475.475 0 0 0-.123.024 9.62 9.62 0 0 1-.965.237 6.765 6.765 0 0 1-1.26.115Z" /></svg>