<svg aria-hidden="true" focusable="false" width="17" height="17" fill="none" xmlns="http://www.w3.org/2000/svg"><path d="M7.511 3.18H9.47c.152 0 .266-.153.266-.286l-.019-.096-.97-2.627C8.71.038 8.614 0 8.5 0c-.133 0-.21.038-.247.171l-.989 2.627c-.019.02-.019.039-.019.096 0 .133.114.285.266.285Zm-3.65 2.322a.2.2 0 0 0 .17-.095L5.42 4.036c.058-.038.077-.095.077-.19a.271.271 0 0 0-.172-.248l-2.529-1.18c-.038 0-.057-.02-.114-.02a.28.28 0 0 0-.285.286c0 .038.019.076.038.114l1.16 2.532c.057.115.133.172.266.172Zm9.336 0c.076-.02.133-.076.19-.172l1.16-2.532.019-.057c.019-.019.019-.038.019-.057A.28.28 0 0 0 14.3 2.4c-.038 0-.076.019-.095.019l-2.548 1.18c-.114.057-.171.152-.171.247 0 .096.037.153.095.19l1.35 1.372a.412.412 0 0 0 .266.095ZM8.5 11.879A3.394 3.394 0 0 1 5.115 8.49 3.378 3.378 0 0 1 8.5 5.12c1.845 0 3.385 1.505 3.385 3.37A3.394 3.394 0 0 1 8.5 11.88ZM2.89 9.747c.172 0 .267-.133.267-.286V7.54c0-.153-.095-.286-.267-.286h-.038l-2.68.99C.056 8.281 0 8.376 0 8.49c0 .115.057.229.171.267l2.624.97.095.02Zm11.2 0 .096-.02 2.624-.97c.133-.057.19-.133.19-.267 0-.114-.057-.19-.19-.247l-2.624-.97c-.038-.02-.076-.02-.114-.02-.152 0-.248.133-.248.286V9.46c0 .172.114.286.267.286ZM2.682 14.6c.038 0 .076-.019.114-.038l2.53-1.161a.293.293 0 0 0 .17-.247c0-.077-.018-.153-.076-.19l-1.388-1.39a.253.253 0 0 0-.19-.077c-.114 0-.19.057-.247.153l-1.16 2.55c-.019.02-.019.039-.019.058l-.019.057c0 .171.114.285.285.285Zm11.619 0a.28.28 0 0 0 .285-.285c-.019-.02-.019-.02-.019-.057l-.019-.057-1.16-2.551a.297.297 0 0 0-.247-.153.399.399 0 0 0-.21.077l-1.35 1.39a.234.234 0 0 0-.095.19c0 .114.058.19.172.247l2.548 1.161c.038.02.057.038.095.038ZM8.5 17c.114 0 .21-.057.247-.171l.97-2.627c.019-.02.019-.057.019-.096 0-.152-.133-.285-.266-.285H7.51c-.171 0-.266.133-.266.285.019.058.019.076.019.096l.989 2.627c.038.114.133.171.247.171Z"/></svg>