<!-- aria-hidden="true" so screen readers don't dwell on it -->
<!-- focusable="false" so old screen readers don't focus on it -->
<svg aria-hidden="true" focusable="false" width="480" height="247" viewBox="0 0 480 247" xmlns="http://www.w3.org/2000/svg">
  <path d="M477 117.9c-24-35.9998-57-65.9996-102-86.9996-39-18-87-30.000009-135-30.000009S144 9.90039 105 30.9004c-45 21-77.9998 50.9998-101.99982 86.9996L0 123.901l3.00018 6c24.00002 36 56.99982 66 101.99982 87 39 18 87 30 135 30s96-9 135-30c45-21 78-51 102-87l3-6-3-6.001Zm-453.0004 6.001c21-30.0004 51-57.0004 90.0004-75.0004 18-9 36-15.0002 54-18.0002-24 21-39 54.0002-39 93.0006 0 39 15 72 42 93-18-3-36-12-54-18-42.0002-18-72.0004-45-93.0004-75Zm342.0004 75c-36 15-75 23.999-117 26.999-54 0-99-41.999-99-98.999 0-54.0002 42-96.0006 93-96.0006 48 0 84 33.0005 84 84.0006 0 30-18 60-33 60-12 0-6-15.001-3-27.001l15-80.9992h-21l-3 18.0001c-12-15-24-21.0003-42-21.0003-39 0-63 36-63 75.0004 0 33 24 56.999 51 56.999 18 0 33-9 42-18 3 12 9 18 18 18 15 0 33-5.999 48-26.999 12-15 18-39.001 18-66.001 0-26.9998-12-47.9992-27-65.9992 15 3 27 9 42 15 36 18 69 42 90 75.0002-24 27-54 54-93 72Zm-93-72c-3 21-15 42-42 42-18 0-30-18.001-30-36.001 0-24 15-47.9991 42-47.9991 18 0 33 14.9999 30 42.0001Z"/>
</svg>