<svg xmlns="http://www.w3.org/2000/svg" width="24" height="24" fill="none"><path fill="#000" d="M14.814 13.682c-.913 0-1.72-.197-2.42-.593-.7-.4-1.25-.95-1.649-1.65-.395-.699-.593-1.508-.593-2.426 0-.263.01-.504.027-.722.023-.223.057-.43.102-.62.046-.192.105-.373.178-.546a.307.307 0 0 0 .034-.143.215.215 0 0 0-.068-.157.2.2 0 0 0-.164-.075.428.428 0 0 0-.068.007.242.242 0 0 0-.061.02 4.649 4.649 0 0 0-1.616 1.139A5.58 5.58 0 0 0 7.44 9.64a5.385 5.385 0 0 0-.388 2.025c0 .713.13 1.379.388 1.997a5.12 5.12 0 0 0 1.09 1.616 5.087 5.087 0 0 0 1.63 1.083 5.182 5.182 0 0 0 2.01.389c.705 0 1.384-.132 2.038-.395a5.535 5.535 0 0 0 1.711-1.07c.491-.45.843-.96 1.057-1.527a.132.132 0 0 0 .02-.069.423.423 0 0 0 .007-.068.24.24 0 0 0-.068-.177.213.213 0 0 0-.164-.075.396.396 0 0 0-.102.02c-.2.064-.468.13-.804.198a5.637 5.637 0 0 1-1.05.095Z"/></svg>