<svg xmlns="http://www.w3.org/2000/svg" width="24" height="24"><path fill="#000" d="M11.186 7.618h1.613c.125 0 .219-.125.219-.235l-.016-.078-.798-2.164C12.172 5.031 12.094 5 12 5c-.11 0-.172.031-.204.141l-.814 2.164c-.016.015-.016.031-.016.078 0 .11.094.235.22.235ZM8.179 9.531c.063 0 .11-.032.14-.079l1.144-1.128c.047-.032.063-.079.063-.157a.223.223 0 0 0-.141-.204l-2.083-.972c-.031 0-.047-.016-.094-.016a.23.23 0 0 0-.235.236c0 .03.016.062.031.094L7.96 9.39c.047.094.11.14.219.14Zm7.689 0c.063-.016.11-.063.157-.141l.955-2.085.015-.047c.016-.016.016-.032.016-.047a.23.23 0 0 0-.235-.236c-.031 0-.062.016-.078.016l-2.098.972c-.094.047-.141.125-.141.204 0 .078.03.125.078.157l1.112 1.128a.339.339 0 0 0 .219.079ZM12 14.783a2.795 2.795 0 0 1-2.787-2.79A2.782 2.782 0 0 1 12 9.216c1.519 0 2.787 1.239 2.787 2.775A2.795 2.795 0 0 1 12 14.782Zm-4.62-1.756c.141 0 .22-.11.22-.235v-1.584c0-.125-.079-.235-.22-.235H7.35l-2.208.815c-.094.032-.141.11-.141.204 0 .094.047.188.14.22l2.162.8.078.015Zm9.224 0 .078-.016 2.161-.8c.11-.046.157-.11.157-.219 0-.094-.047-.157-.157-.204l-2.16-.8c-.032-.015-.063-.015-.095-.015-.125 0-.203.11-.203.235v1.584c0 .14.094.235.219.235Zm-9.396 3.998a.222.222 0 0 0 .094-.032l2.083-.956a.242.242 0 0 0 .14-.204c0-.063-.015-.125-.062-.157L8.32 14.532a.209.209 0 0 0-.157-.063c-.094 0-.156.047-.203.126l-.956 2.1c-.015.016-.015.032-.015.047l-.016.047c0 .142.094.236.235.236Zm9.568 0a.23.23 0 0 0 .235-.235c-.015-.016-.015-.016-.015-.048l-.016-.047-.955-2.1a.244.244 0 0 0-.204-.126.328.328 0 0 0-.172.063l-1.112 1.144a.193.193 0 0 0-.078.157c0 .094.047.157.14.204l2.099.956c.031.016.047.032.078.032ZM12 19c.094 0 .172-.047.204-.141l.798-2.164c.016-.015.016-.047.016-.078 0-.125-.11-.235-.22-.235h-1.612c-.141 0-.22.11-.22.235.016.047.016.063.016.078l.814 2.164c.032.094.11.141.204.141Z"/></svg>