<svg xmlns="http://www.w3.org/2000/svg" viewBox="0 0 16 16">
  <path fill="#000000" d="M9.1,8.2 C9,8.9 8.6,9.6 7.7,9.6 C7.1,9.6 6.7,9 6.7,8.4 C6.7,7.6 7.2,6.8 8.1,6.8 C8.7,6.8 9.2,7.3 9.1,8.2 L9.1,8.2 Z M12.2,10.6 C11,11.1 9.7,11.4 8.3,11.5 C6.5,11.5 5,10.1 5,8.2 C5,6.4 6.4,5 8.1,5 C9.7,5 10.9,6.1 10.9,7.8 C10.9,8.8 10.3,9.8 9.8,9.8 C9.4,9.8 9.6,9.3 9.7,8.9 L10.2,6.2 L9.5,6.2 L9.4,6.8 C9,6.3 8.6,6.1 8,6.1 C6.7,6.1 5.9,7.3 5.9,8.6 C5.9,9.7 6.7,10.5 7.6,10.5 C8.2,10.5 8.7,10.2 9,9.9 C9.1,10.3 9.3,10.5 9.6,10.5 C10.1,10.5 10.7,10.3 11.2,9.6 C11.6,9.1 11.8,8.3 11.8,7.4 C11.8,6.5 11.4,5.8 10.9,5.2 C11.4,5.3 11.8,5.5 12.3,5.7 C13.5,6.3 14.6,7.1 15.3,8.2 C14.5,9.1 13.5,10 12.2,10.6 L12.2,10.6 Z M0.8,8.1 C1.5,7.1 2.5,6.2 3.8,5.6 C4.4,5.3 5,5.1 5.6,5 C4.8,5.7 4.3,6.8 4.3,8.1 C4.3,9.4 4.8,10.5 5.7,11.2 C5.1,11.1 4.5,10.8 3.9,10.6 C2.5,10 1.5,9.1 0.8,8.1 L0.8,8.1 Z M15.9,7.9 C15.1,6.7 14,5.7 12.5,5 C11.2,4.4 9.6,4 8,4 C6.4,4 4.8,4.3 3.5,5 C2,5.7 0.9,6.7 0.1,7.9 L0,8.1 L0.1,8.3 C0.9,9.5 2,10.5 3.5,11.2 C4.8,11.8 6.4,12.2 8,12.2 C9.6,12.2 11.2,11.9 12.5,11.2 C14,10.5 15.1,9.5 15.9,8.3 L16,8.1 L15.9,7.9 Z"></path>
</svg>
