<?xml version="1.0" encoding="UTF-8"?>
<svg width="112px" height="112px" viewBox="0 0 112 112" version="1.1" xmlns="http://www.w3.org/2000/svg" xmlns:xlink="http://www.w3.org/1999/xlink">
  <g fill="#000000">
    <path d="M40.9076659,36.2133787 C35.7615469,40.7828375 32.5407692,47.5959957 32.5407692,55.5098421 C32.5407692,63.5201169 35.8315281,70.2995014 41.0585442,74.822153 C37.0824689,73.8894206 33.271861,72.5817038 29.718284,70.9185526 C21.9114792,67.2647456 15.5715384,61.9512018 11.3008283,55.5 C15.5715384,49.0487982 21.9114792,43.7352544 29.718284,40.0814474 C33.2268886,38.4392775 36.9860595,37.1436623 40.9076659,36.2133787 Z M73.6297616,36.871183 C76.6409581,37.7229269 79.5409076,38.7960169 82.2873668,40.0814474 C90.0940236,43.7352544 96.4339644,49.0487982 100.704674,55.5 C96.4339644,61.9512018 90.0940236,67.2647456 82.2873668,70.9185526 C75.0204867,74.3195461 66.6790464,76.2342355 58.0455434,76.4954483 C58.0372311,76.4954477 58.0289336,76.4954474 58.0206508,76.4954474 C46.9993491,76.4954474 37.6968343,67.3997018 37.6968343,55.5098421 C37.6968343,44.2698596 46.1400295,35.1738158 56.9676923,35.1738158 C66.8289349,35.1738158 74.3696153,41.995886 74.3696153,52.9110789 C74.3696153,59.343193 70.3737573,65.3855 67.4089644,65.3855 C65.2175443,65.3855 66.0555621,62.0069737 66.5065976,59.7980175 L69.7290828,43.1002895 L65.1530473,43.1002895 L64.2508283,47.1285439 C61.6727218,43.7501667 58.9656212,42.5155789 55.6787869,42.5155789 C47.6867751,42.5155789 42.5308579,50.1172632 42.5308579,57.9788684 C42.5308579,64.6707544 47.6867751,69.9984649 53.3585207,69.9984649 C57.2256804,69.9984649 59.9326331,68.1793158 62.1239053,65.9702105 C62.5104437,68.4392368 63.7996449,69.9335965 65.6040828,69.9984649 C68.6978698,70.1285 72.4360354,68.4392368 75.5298224,64.3459649 C78.107781,60.9674386 79.5258283,55.9646667 79.5258283,50.5720877 C79.5258283,45.1615183 77.2518913,40.5323429 73.6297616,36.871183 Z M56,112 C25.072054,112 0,86.927946 0,56 C0,25.072054 25.072054,0 56,0 C86.927946,0 112,25.072054 112,56 C112,86.927946 86.927946,112 56,112 Z M56.0027514,81 C66.0009763,81 75.7361834,78.9169035 84.1560059,74.9763333 C93.2233136,70.7324474 100.510444,64.4030789 105.229674,56.6722544 L105.945355,55.5 L105.229674,54.3277456 C100.510444,46.5969211 93.2233136,40.2675526 84.1560059,36.0238158 C75.7361834,32.0829474 66.0009763,30 56.0027514,30 C46.0046745,30 36.2693195,32.0829474 27.8493491,36.0238158 C18.7821893,40.2675526 11.4949112,46.5969211 6.77568042,54.3277456 L6.05999994,55.5 L6.77568042,56.6722544 C11.4949112,64.4030789 18.7821893,70.7324474 27.8493491,74.9763333 C36.2693195,78.9169035 46.0046745,81 56.0027514,81 Z M56.0654733,47.5833684 C60.5125147,47.5833684 63.2841124,50.5720877 62.6395857,55.8346316 C62.0594082,60.512614 59.739142,64.9308246 54.0030473,64.9308246 C50.0070414,64.9308246 47.5580769,61.3572456 47.5580769,57.5240439 C47.5580769,52.781193 50.8449112,47.5833684 56.0654733,47.5833684 Z" id="Combined-Shape"></path>
  </g>
</svg>
